<?xml version="1.0" encoding="UTF-8" standalone="no"?>
<!DOCTYPE svg PUBLIC "-//W3C//DTD SVG 1.1//EN"
 "http://www.w3.org/Graphics/SVG/1.1/DTD/svg11.dtd">
<!-- Generated by graphviz version 2.40.1 (20161225.0304)
 -->
<!-- Title: dependencies Pages: 1 -->
<svg width="7445pt" height="284pt"
 viewBox="0.00 0.00 7445.00 284.00" xmlns="http://www.w3.org/2000/svg" xmlns:xlink="http://www.w3.org/1999/xlink">
<g id="graph0" class="graph" transform="scale(1 1) rotate(0) translate(4 280)">
<title>dependencies</title>
<polygon fill="#ffffff" stroke="transparent" points="-4,4 -4,-280 7441,-280 7441,4 -4,4"/>
<text text-anchor="start" x="3697.5091" y="-42.4" font-family="sans-serif" font-weight="bold" font-size="14.00" fill="#000000">Legend</text>
<polygon fill="#ffffb3" stroke="transparent" points="3484.5,-10 3484.5,-30 3504.5,-30 3504.5,-10 3484.5,-10"/>
<text text-anchor="start" x="3508.129" y="-15.4" font-family="sans-serif" font-size="14.00" fill="#000000"> &#160;Declarations</text>
<polygon fill="#8dd3c7" stroke="transparent" points="3597.5,-10 3597.5,-30 3617.5,-30 3617.5,-10 3597.5,-10"/>
<text text-anchor="start" x="3621.2251" y="-15.4" font-family="sans-serif" font-size="14.00" fill="#000000"> &#160;Module</text>
<polygon fill="#80b1d3" stroke="transparent" points="3683.5,-10 3683.5,-30 3703.5,-30 3703.5,-10 3683.5,-10"/>
<text text-anchor="start" x="3707.2812" y="-15.4" font-family="sans-serif" font-size="14.00" fill="#000000"> &#160;Bootstrap</text>
<polygon fill="#fdb462" stroke="transparent" points="3780.5,-10 3780.5,-30 3800.5,-30 3800.5,-10 3780.5,-10"/>
<text text-anchor="start" x="3804.1732" y="-15.4" font-family="sans-serif" font-size="14.00" fill="#000000"> &#160;Providers</text>
<polygon fill="#fb8072" stroke="transparent" points="3876.5,-10 3876.5,-30 3896.5,-30 3896.5,-10 3876.5,-10"/>
<text text-anchor="start" x="3900.2258" y="-15.4" font-family="sans-serif" font-size="14.00" fill="#000000"> &#160;Exports</text>
<g id="clust1" class="cluster">
<title>cluster_AppModule</title>
<polygon fill="none" stroke="#000000" stroke-dasharray="1,5" points="8,-70 8,-268 7429,-268 7429,-70 8,-70"/>
</g>
<g id="clust2" class="cluster">
<title>cluster_AppModule_declarations</title>
<polygon fill="none" stroke="#000000" points="1806,-78 1806,-130 7421,-130 7421,-78 1806,-78"/>
</g>
<g id="clust34" class="cluster">
<title>cluster_AppModule_imports</title>
<polygon fill="none" stroke="#000000" points="1654,-78 1654,-130 1798,-130 1798,-78 1654,-78"/>
</g>
<g id="clust36" class="cluster">
<title>cluster_AppModule_bootstrap</title>
<polygon fill="none" stroke="#000000" points="3915,-208 3915,-260 4039,-260 4039,-208 3915,-208"/>
</g>
<g id="clust37" class="cluster">
<title>cluster_AppModule_providers</title>
<polygon fill="none" stroke="#000000" points="16,-78 16,-130 1646,-130 1646,-78 16,-78"/>
</g>
<!-- AppComponent -->
<g id="node1" class="node">
<title>AppComponent</title>
<polygon fill="#ffffb3" stroke="#000000" points="7412.9399,-122 7307.0601,-122 7307.0601,-86 7412.9399,-86 7412.9399,-122"/>
<text text-anchor="middle" x="7360" y="-99.8" font-family="Times,serif" font-size="14.00" fill="#000000">AppComponent</text>
</g>
<!-- AppModule -->
<g id="node32" class="node">
<title>AppModule</title>
<polygon fill="#8dd3c7" stroke="#000000" points="4018.6571,-187 4015.6571,-191 3994.6571,-191 3991.6571,-187 3935.3429,-187 3935.3429,-151 4018.6571,-151 4018.6571,-187"/>
<text text-anchor="middle" x="3977" y="-164.8" font-family="Times,serif" font-size="14.00" fill="#000000">AppModule</text>
</g>
<!-- AppComponent&#45;&gt;AppModule -->
<g id="edge1" class="edge">
<title>AppComponent&#45;&gt;AppModule</title>
<path fill="none" stroke="#000000" d="M7360,-122.1985C7360,-146.3563 7360,-186 7360,-186 7360,-186 4028.8567,-186 4028.8567,-186"/>
<polygon fill="#000000" stroke="#000000" points="4028.8567,-182.5001 4018.8567,-186 4028.8566,-189.5001 4028.8567,-182.5001"/>
</g>
<!-- NavComponent -->
<g id="node2" class="node">
<title>NavComponent</title>
<polygon fill="#ffffb3" stroke="#000000" points="7289.1542,-122 7184.8458,-122 7184.8458,-86 7289.1542,-86 7289.1542,-122"/>
<text text-anchor="middle" x="7237" y="-99.8" font-family="Times,serif" font-size="14.00" fill="#000000">NavComponent</text>
</g>
<!-- NavComponent&#45;&gt;AppModule -->
<g id="edge2" class="edge">
<title>NavComponent&#45;&gt;AppModule</title>
<path fill="none" stroke="#000000" d="M7237,-122.1532C7237,-145.7566 7237,-184 7237,-184 7237,-184 4028.8126,-184 4028.8126,-184"/>
<polygon fill="#000000" stroke="#000000" points="4028.8126,-180.5001 4018.8126,-184 4028.8125,-187.5001 4028.8126,-180.5001"/>
</g>
<!-- HomeComponent -->
<g id="node3" class="node">
<title>HomeComponent</title>
<polygon fill="#ffffb3" stroke="#000000" points="7166.5451,-122 7051.4549,-122 7051.4549,-86 7166.5451,-86 7166.5451,-122"/>
<text text-anchor="middle" x="7109" y="-99.8" font-family="Times,serif" font-size="14.00" fill="#000000">HomeComponent</text>
</g>
<!-- HomeComponent&#45;&gt;AppModule -->
<g id="edge3" class="edge">
<title>HomeComponent&#45;&gt;AppModule</title>
<path fill="none" stroke="#000000" d="M7109,-122.0908C7109,-145.1328 7109,-182 7109,-182 7109,-182 4028.9066,-182 4028.9066,-182"/>
<polygon fill="#000000" stroke="#000000" points="4028.9066,-178.5001 4018.9066,-182 4028.9065,-185.5001 4028.9066,-178.5001"/>
</g>
<!-- FooterComponent -->
<g id="node4" class="node">
<title>FooterComponent</title>
<polygon fill="#ffffb3" stroke="#000000" points="7032.8809,-122 6915.1191,-122 6915.1191,-86 7032.8809,-86 7032.8809,-122"/>
<text text-anchor="middle" x="6974" y="-99.8" font-family="Times,serif" font-size="14.00" fill="#000000">FooterComponent</text>
</g>
<!-- FooterComponent&#45;&gt;AppModule -->
<g id="edge4" class="edge">
<title>FooterComponent&#45;&gt;AppModule</title>
<path fill="none" stroke="#000000" d="M6974,-122.2479C6974,-145.0179 6974,-181 6974,-181 6974,-181 4028.7944,-181 4028.7944,-181"/>
<polygon fill="#000000" stroke="#000000" points="4028.7945,-177.5001 4018.7944,-181 4028.7944,-184.5001 4028.7945,-177.5001"/>
</g>
<!-- TestComponent -->
<g id="node5" class="node">
<title>TestComponent</title>
<polygon fill="#ffffb3" stroke="#000000" points="6896.9357,-122 6791.0643,-122 6791.0643,-86 6896.9357,-86 6896.9357,-122"/>
<text text-anchor="middle" x="6844" y="-99.8" font-family="Times,serif" font-size="14.00" fill="#000000">TestComponent</text>
</g>
<!-- TestComponent&#45;&gt;AppModule -->
<g id="edge5" class="edge">
<title>TestComponent&#45;&gt;AppModule</title>
<path fill="none" stroke="#000000" d="M6844,-122.1554C6844,-144.3519 6844,-179 6844,-179 6844,-179 4028.9125,-179 4028.9125,-179"/>
<polygon fill="#000000" stroke="#000000" points="4028.9125,-175.5001 4018.9125,-179 4028.9124,-182.5001 4028.9125,-175.5001"/>
</g>
<!-- OffresComponent -->
<g id="node6" class="node">
<title>OffresComponent</title>
<polygon fill="#ffffb3" stroke="#000000" points="6773.58,-122 6656.42,-122 6656.42,-86 6773.58,-86 6773.58,-122"/>
<text text-anchor="middle" x="6715" y="-99.8" font-family="Times,serif" font-size="14.00" fill="#000000">OffresComponent</text>
</g>
<!-- OffresComponent&#45;&gt;AppModule -->
<g id="edge6" class="edge">
<title>OffresComponent&#45;&gt;AppModule</title>
<path fill="none" stroke="#000000" d="M6715,-122.0449C6715,-143.6623 6715,-177 6715,-177 6715,-177 4028.9118,-177 4028.9118,-177"/>
<polygon fill="#000000" stroke="#000000" points="4028.9118,-173.5001 4018.9118,-177 4028.9118,-180.5001 4028.9118,-173.5001"/>
</g>
<!-- OffreComponent -->
<g id="node7" class="node">
<title>OffreComponent</title>
<polygon fill="#ffffb3" stroke="#000000" points="6638.636,-122 6527.364,-122 6527.364,-86 6638.636,-86 6638.636,-122"/>
<text text-anchor="middle" x="6583" y="-99.8" font-family="Times,serif" font-size="14.00" fill="#000000">OffreComponent</text>
</g>
<!-- OffreComponent&#45;&gt;AppModule -->
<g id="edge7" class="edge">
<title>OffreComponent&#45;&gt;AppModule</title>
<path fill="none" stroke="#000000" d="M6583,-122.2843C6583,-143.3211 6583,-175 6583,-175 6583,-175 4028.7245,-175 4028.7245,-175"/>
<polygon fill="#000000" stroke="#000000" points="4028.7245,-171.5001 4018.7245,-175 4028.7245,-178.5001 4028.7245,-171.5001"/>
</g>
<!-- OffreDetailComponent -->
<g id="node8" class="node">
<title>OffreDetailComponent</title>
<polygon fill="#ffffb3" stroke="#000000" points="6508.8431,-122 6363.1569,-122 6363.1569,-86 6508.8431,-86 6508.8431,-122"/>
<text text-anchor="middle" x="6436" y="-99.8" font-family="Times,serif" font-size="14.00" fill="#000000">OffreDetailComponent</text>
</g>
<!-- OffreDetailComponent&#45;&gt;AppModule -->
<g id="edge8" class="edge">
<title>OffreDetailComponent&#45;&gt;AppModule</title>
<path fill="none" stroke="#000000" d="M6436,-122.0267C6436,-142.7672 6436,-174 6436,-174 6436,-174 4028.9056,-174 4028.9056,-174"/>
<polygon fill="#000000" stroke="#000000" points="4028.9057,-170.5001 4018.9056,-174 4028.9056,-177.5001 4028.9057,-170.5001"/>
</g>
<!-- ModalConnexionCandidatComponent -->
<g id="node9" class="node">
<title>ModalConnexionCandidatComponent</title>
<polygon fill="#ffffb3" stroke="#000000" points="6344.871,-122 6115.129,-122 6115.129,-86 6344.871,-86 6344.871,-122"/>
<text text-anchor="middle" x="6230" y="-99.8" font-family="Times,serif" font-size="14.00" fill="#000000">ModalConnexionCandidatComponent</text>
</g>
<!-- ModalConnexionCandidatComponent&#45;&gt;AppModule -->
<g id="edge9" class="edge">
<title>ModalConnexionCandidatComponent&#45;&gt;AppModule</title>
<path fill="none" stroke="#000000" d="M6230,-122.2228C6230,-142.3652 6230,-172 6230,-172 6230,-172 4029.0062,-172 4029.0062,-172"/>
<polygon fill="#000000" stroke="#000000" points="4029.0062,-168.5001 4019.0062,-172 4029.0061,-175.5001 4029.0062,-168.5001"/>
</g>
<!-- FormConnexionCandidatComponent -->
<g id="node10" class="node">
<title>FormConnexionCandidatComponent</title>
<polygon fill="#ffffb3" stroke="#000000" points="6096.6553,-122 5873.3447,-122 5873.3447,-86 6096.6553,-86 6096.6553,-122"/>
<text text-anchor="middle" x="5985" y="-99.8" font-family="Times,serif" font-size="14.00" fill="#000000">FormConnexionCandidatComponent</text>
</g>
<!-- FormConnexionCandidatComponent&#45;&gt;AppModule -->
<g id="edge10" class="edge">
<title>FormConnexionCandidatComponent&#45;&gt;AppModule</title>
<path fill="none" stroke="#000000" d="M5985,-122.0348C5985,-141.5762 5985,-170 5985,-170 5985,-170 4028.9399,-170 4028.9399,-170"/>
<polygon fill="#000000" stroke="#000000" points="4028.94,-166.5001 4018.9399,-170 4028.9399,-173.5001 4028.94,-166.5001"/>
</g>
<!-- CandidatComponent -->
<g id="node11" class="node">
<title>CandidatComponent</title>
<polygon fill="#ffffb3" stroke="#000000" points="5854.8795,-122 5723.1205,-122 5723.1205,-86 5854.8795,-86 5854.8795,-122"/>
<text text-anchor="middle" x="5789" y="-99.8" font-family="Times,serif" font-size="14.00" fill="#000000">CandidatComponent</text>
</g>
<!-- CandidatComponent&#45;&gt;AppModule -->
<g id="edge11" class="edge">
<title>CandidatComponent&#45;&gt;AppModule</title>
<path fill="none" stroke="#000000" d="M5789,-122.1061C5789,-141.3391 5789,-169 5789,-169 5789,-169 4028.6858,-169 4028.6858,-169"/>
<polygon fill="#000000" stroke="#000000" points="4028.6859,-165.5001 4018.6858,-169 4028.6858,-172.5001 4028.6859,-165.5001"/>
</g>
<!-- CandidatsComponent -->
<g id="node12" class="node">
<title>CandidatsComponent</title>
<polygon fill="#ffffb3" stroke="#000000" points="5704.8244,-122 5567.1756,-122 5567.1756,-86 5704.8244,-86 5704.8244,-122"/>
<text text-anchor="middle" x="5636" y="-99.8" font-family="Times,serif" font-size="14.00" fill="#000000">CandidatsComponent</text>
</g>
<!-- CandidatsComponent&#45;&gt;AppModule -->
<g id="edge12" class="edge">
<title>CandidatsComponent&#45;&gt;AppModule</title>
<path fill="none" stroke="#000000" d="M5636,-122.2222C5636,-140.8285 5636,-167 5636,-167 5636,-167 4028.8389,-167 4028.8389,-167"/>
<polygon fill="#000000" stroke="#000000" points="4028.839,-163.5001 4018.8389,-167 4028.8389,-170.5001 4028.839,-163.5001"/>
</g>
<!-- CandidatDetailComponent -->
<g id="node13" class="node">
<title>CandidatDetailComponent</title>
<polygon fill="#ffffb3" stroke="#000000" points="5549.087,-122 5382.913,-122 5382.913,-86 5549.087,-86 5549.087,-122"/>
<text text-anchor="middle" x="5466" y="-99.8" font-family="Times,serif" font-size="14.00" fill="#000000">CandidatDetailComponent</text>
</g>
<!-- CandidatDetailComponent&#45;&gt;AppModule -->
<g id="edge13" class="edge">
<title>CandidatDetailComponent&#45;&gt;AppModule</title>
<path fill="none" stroke="#000000" d="M5466,-122.302C5466,-140.2699 5466,-165 5466,-165 5466,-165 4028.7706,-165 4028.7706,-165"/>
<polygon fill="#000000" stroke="#000000" points="4028.7706,-161.5001 4018.7706,-165 4028.7705,-168.5001 4028.7706,-161.5001"/>
</g>
<!-- CandidatModificationComponent -->
<g id="node14" class="node">
<title>CandidatModificationComponent</title>
<polygon fill="#ffffb3" stroke="#000000" points="5364.4762,-122 5159.5238,-122 5159.5238,-86 5364.4762,-86 5364.4762,-122"/>
<text text-anchor="middle" x="5262" y="-99.8" font-family="Times,serif" font-size="14.00" fill="#000000">CandidatModificationComponent</text>
</g>
<!-- CandidatModificationComponent&#45;&gt;AppModule -->
<g id="edge14" class="edge">
<title>CandidatModificationComponent&#45;&gt;AppModule</title>
<path fill="none" stroke="#000000" d="M5262,-122.0225C5262,-139.3734 5262,-163 5262,-163 5262,-163 4028.6606,-163 4028.6606,-163"/>
<polygon fill="#000000" stroke="#000000" points="4028.6606,-159.5001 4018.6606,-163 4028.6605,-166.5001 4028.6606,-159.5001"/>
</g>
<!-- RecruteurDetailComponent -->
<g id="node15" class="node">
<title>RecruteurDetailComponent</title>
<polygon fill="#ffffb3" stroke="#000000" points="5141.2324,-122 4970.7676,-122 4970.7676,-86 5141.2324,-86 5141.2324,-122"/>
<text text-anchor="middle" x="5056" y="-99.8" font-family="Times,serif" font-size="14.00" fill="#000000">RecruteurDetailComponent</text>
</g>
<!-- RecruteurDetailComponent&#45;&gt;AppModule -->
<g id="edge15" class="edge">
<title>RecruteurDetailComponent&#45;&gt;AppModule</title>
<path fill="none" stroke="#000000" d="M5056,-122.0336C5056,-139.0597 5056,-162 5056,-162 5056,-162 4028.9669,-162 4028.9669,-162"/>
<polygon fill="#000000" stroke="#000000" points="4028.967,-158.5001 4018.9669,-162 4028.9669,-165.5001 4028.967,-158.5001"/>
</g>
<!-- RecruteurModificationComponent -->
<g id="node16" class="node">
<title>RecruteurModificationComponent</title>
<polygon fill="#ffffb3" stroke="#000000" points="4952.6217,-122 4743.3783,-122 4743.3783,-86 4952.6217,-86 4952.6217,-122"/>
<text text-anchor="middle" x="4848" y="-99.8" font-family="Times,serif" font-size="14.00" fill="#000000">RecruteurModificationComponent</text>
</g>
<!-- RecruteurModificationComponent&#45;&gt;AppModule -->
<g id="edge16" class="edge">
<title>RecruteurModificationComponent&#45;&gt;AppModule</title>
<path fill="none" stroke="#000000" d="M4848,-122.027C4848,-138.3976 4848,-160 4848,-160 4848,-160 4028.7167,-160 4028.7167,-160"/>
<polygon fill="#000000" stroke="#000000" points="4028.7167,-156.5001 4018.7167,-160 4028.7167,-163.5001 4028.7167,-156.5001"/>
</g>
<!-- CompetenceComponent -->
<g id="node17" class="node">
<title>CompetenceComponent</title>
<polygon fill="#ffffb3" stroke="#000000" points="4725.8089,-122 4574.1911,-122 4574.1911,-86 4725.8089,-86 4725.8089,-122"/>
<text text-anchor="middle" x="4650" y="-99.8" font-family="Times,serif" font-size="14.00" fill="#000000">CompetenceComponent</text>
</g>
<!-- CompetenceComponent&#45;&gt;AppModule -->
<g id="edge17" class="edge">
<title>CompetenceComponent&#45;&gt;AppModule</title>
<path fill="none" stroke="#000000" d="M4650,-122.2819C4650,-137.9478 4650,-158 4650,-158 4650,-158 4028.8449,-158 4028.8449,-158"/>
<polygon fill="#000000" stroke="#000000" points="4028.8449,-154.5001 4018.8449,-158 4028.8449,-161.5001 4028.8449,-154.5001"/>
</g>
<!-- ExperienceComponent -->
<g id="node18" class="node">
<title>ExperienceComponent</title>
<polygon fill="#ffffb3" stroke="#000000" points="4556.2949,-122 4411.7051,-122 4411.7051,-86 4556.2949,-86 4556.2949,-122"/>
<text text-anchor="middle" x="4484" y="-99.8" font-family="Times,serif" font-size="14.00" fill="#000000">ExperienceComponent</text>
</g>
<!-- ExperienceComponent&#45;&gt;AppModule -->
<g id="edge18" class="edge">
<title>ExperienceComponent&#45;&gt;AppModule</title>
<path fill="none" stroke="#000000" d="M4484,-122.2396C4484,-137.5706 4484,-157 4484,-157 4484,-157 4028.9213,-157 4028.9213,-157"/>
<polygon fill="#000000" stroke="#000000" points="4028.9213,-153.5001 4018.9213,-157 4028.9212,-160.5001 4028.9213,-153.5001"/>
</g>
<!-- LoginComponent -->
<g id="node19" class="node">
<title>LoginComponent</title>
<polygon fill="#ffffb3" stroke="#000000" points="4393.2758,-122 4278.7242,-122 4278.7242,-86 4393.2758,-86 4393.2758,-122"/>
<text text-anchor="middle" x="4336" y="-99.8" font-family="Times,serif" font-size="14.00" fill="#000000">LoginComponent</text>
</g>
<!-- LoginComponent&#45;&gt;AppModule -->
<g id="edge19" class="edge">
<title>LoginComponent&#45;&gt;AppModule</title>
<path fill="none" stroke="#000000" d="M4336,-122.1243C4336,-136.7832 4336,-155 4336,-155 4336,-155 4028.8845,-155 4028.8845,-155"/>
<polygon fill="#000000" stroke="#000000" points="4028.8845,-151.5001 4018.8845,-155 4028.8844,-158.5001 4028.8845,-151.5001"/>
</g>
<!-- AlertComponent -->
<g id="node20" class="node">
<title>AlertComponent</title>
<polygon fill="#ffffb3" stroke="#000000" points="4261.0954,-122 4150.9046,-122 4150.9046,-86 4261.0954,-86 4261.0954,-122"/>
<text text-anchor="middle" x="4206" y="-99.8" font-family="Times,serif" font-size="14.00" fill="#000000">AlertComponent</text>
</g>
<!-- AlertComponent&#45;&gt;AppModule -->
<g id="edge20" class="edge">
<title>AlertComponent&#45;&gt;AppModule</title>
<path fill="none" stroke="#000000" d="M4206,-122.2458C4206,-136.1772 4206,-153 4206,-153 4206,-153 4028.7359,-153 4028.7359,-153"/>
<polygon fill="#000000" stroke="#000000" points="4028.7359,-149.5001 4018.7359,-153 4028.7358,-156.5001 4028.7359,-149.5001"/>
</g>
<!-- RegisterComponent -->
<g id="node21" class="node">
<title>RegisterComponent</title>
<polygon fill="#ffffb3" stroke="#000000" points="4132.9846,-122 4005.0154,-122 4005.0154,-86 4132.9846,-86 4132.9846,-122"/>
<text text-anchor="middle" x="4069" y="-99.8" font-family="Times,serif" font-size="14.00" fill="#000000">RegisterComponent</text>
</g>
<!-- RegisterComponent&#45;&gt;AppModule -->
<g id="edge21" class="edge">
<title>RegisterComponent&#45;&gt;AppModule</title>
<path fill="none" stroke="#000000" d="M4011.918,-122.1061C4011.918,-122.1061 4011.918,-140.991 4011.918,-140.991"/>
<polygon fill="#000000" stroke="#000000" points="4008.418,-140.9909 4011.918,-150.991 4015.418,-140.991 4008.418,-140.9909"/>
</g>
<!-- FormUpdateCandidatComponent -->
<g id="node22" class="node">
<title>FormUpdateCandidatComponent</title>
<polygon fill="#ffffb3" stroke="#000000" points="3987.1399,-122 3784.8601,-122 3784.8601,-86 3987.1399,-86 3987.1399,-122"/>
<text text-anchor="middle" x="3886" y="-99.8" font-family="Times,serif" font-size="14.00" fill="#000000">FormUpdateCandidatComponent</text>
</g>
<!-- FormUpdateCandidatComponent&#45;&gt;AppModule -->
<g id="edge22" class="edge">
<title>FormUpdateCandidatComponent&#45;&gt;AppModule</title>
<path fill="none" stroke="#000000" d="M3961.2458,-122.1061C3961.2458,-122.1061 3961.2458,-140.991 3961.2458,-140.991"/>
<polygon fill="#000000" stroke="#000000" points="3957.7459,-140.9909 3961.2458,-150.991 3964.7459,-140.991 3957.7459,-140.9909"/>
</g>
<!-- FormAjoutExperienceComponent -->
<g id="node23" class="node">
<title>FormAjoutExperienceComponent</title>
<polygon fill="#ffffb3" stroke="#000000" points="3766.0168,-122 3559.9832,-122 3559.9832,-86 3766.0168,-86 3766.0168,-122"/>
<text text-anchor="middle" x="3663" y="-99.8" font-family="Times,serif" font-size="14.00" fill="#000000">FormAjoutExperienceComponent</text>
</g>
<!-- FormAjoutExperienceComponent&#45;&gt;AppModule -->
<g id="edge23" class="edge">
<title>FormAjoutExperienceComponent&#45;&gt;AppModule</title>
<path fill="none" stroke="#000000" d="M3663,-122.2458C3663,-136.1772 3663,-153 3663,-153 3663,-153 3925.3032,-153 3925.3032,-153"/>
<polygon fill="#000000" stroke="#000000" points="3925.3033,-156.5001 3935.3032,-153 3925.3032,-149.5001 3925.3033,-156.5001"/>
</g>
<!-- ModalAjoutExperienceComponent -->
<g id="node24" class="node">
<title>ModalAjoutExperienceComponent</title>
<polygon fill="#ffffb3" stroke="#000000" points="3541.2324,-122 3328.7676,-122 3328.7676,-86 3541.2324,-86 3541.2324,-122"/>
<text text-anchor="middle" x="3435" y="-99.8" font-family="Times,serif" font-size="14.00" fill="#000000">ModalAjoutExperienceComponent</text>
</g>
<!-- ModalAjoutExperienceComponent&#45;&gt;AppModule -->
<g id="edge24" class="edge">
<title>ModalAjoutExperienceComponent&#45;&gt;AppModule</title>
<path fill="none" stroke="#000000" d="M3435,-122.1243C3435,-136.7832 3435,-155 3435,-155 3435,-155 3924.9212,-155 3924.9212,-155"/>
<polygon fill="#000000" stroke="#000000" points="3924.9212,-158.5001 3934.9212,-155 3924.9211,-151.5001 3924.9212,-158.5001"/>
</g>
<!-- ExperiencesModificationComponent -->
<g id="node25" class="node">
<title>ExperiencesModificationComponent</title>
<polygon fill="#ffffb3" stroke="#000000" points="3310.3361,-122 3087.6639,-122 3087.6639,-86 3310.3361,-86 3310.3361,-122"/>
<text text-anchor="middle" x="3199" y="-99.8" font-family="Times,serif" font-size="14.00" fill="#000000">ExperiencesModificationComponent</text>
</g>
<!-- ExperiencesModificationComponent&#45;&gt;AppModule -->
<g id="edge25" class="edge">
<title>ExperiencesModificationComponent&#45;&gt;AppModule</title>
<path fill="none" stroke="#000000" d="M3199,-122.2396C3199,-137.5706 3199,-157 3199,-157 3199,-157 3925.1713,-157 3925.1713,-157"/>
<polygon fill="#000000" stroke="#000000" points="3925.1714,-160.5001 3935.1713,-157 3925.1713,-153.5001 3925.1714,-160.5001"/>
</g>
<!-- ModalAjoutCompetenceComponent -->
<g id="node26" class="node">
<title>ModalAjoutCompetenceComponent</title>
<polygon fill="#ffffb3" stroke="#000000" points="3069.7463,-122 2850.2537,-122 2850.2537,-86 3069.7463,-86 3069.7463,-122"/>
<text text-anchor="middle" x="2960" y="-99.8" font-family="Times,serif" font-size="14.00" fill="#000000">ModalAjoutCompetenceComponent</text>
</g>
<!-- ModalAjoutCompetenceComponent&#45;&gt;AppModule -->
<g id="edge26" class="edge">
<title>ModalAjoutCompetenceComponent&#45;&gt;AppModule</title>
<path fill="none" stroke="#000000" d="M2960,-122.2819C2960,-137.9478 2960,-158 2960,-158 2960,-158 3925.2364,-158 3925.2364,-158"/>
<polygon fill="#000000" stroke="#000000" points="3925.2364,-161.5001 3935.2364,-158 3925.2363,-154.5001 3925.2364,-161.5001"/>
</g>
<!-- FormAjoutCompetenceComponent -->
<g id="node27" class="node">
<title>FormAjoutCompetenceComponent</title>
<polygon fill="#ffffb3" stroke="#000000" points="2831.5307,-122 2618.4693,-122 2618.4693,-86 2831.5307,-86 2831.5307,-122"/>
<text text-anchor="middle" x="2725" y="-99.8" font-family="Times,serif" font-size="14.00" fill="#000000">FormAjoutCompetenceComponent</text>
</g>
<!-- FormAjoutCompetenceComponent&#45;&gt;AppModule -->
<g id="edge27" class="edge">
<title>FormAjoutCompetenceComponent&#45;&gt;AppModule</title>
<path fill="none" stroke="#000000" d="M2725,-122.027C2725,-138.3976 2725,-160 2725,-160 2725,-160 3924.9857,-160 3924.9857,-160"/>
<polygon fill="#000000" stroke="#000000" points="3924.9858,-163.5001 3934.9857,-160 3924.9857,-156.5001 3924.9858,-163.5001"/>
</g>
<!-- CompetenceModificationComponent -->
<g id="node28" class="node">
<title>CompetenceModificationComponent</title>
<polygon fill="#ffffb3" stroke="#000000" points="2600.4058,-122 2375.5942,-122 2375.5942,-86 2600.4058,-86 2600.4058,-122"/>
<text text-anchor="middle" x="2488" y="-99.8" font-family="Times,serif" font-size="14.00" fill="#000000">CompetenceModificationComponent</text>
</g>
<!-- CompetenceModificationComponent&#45;&gt;AppModule -->
<g id="edge28" class="edge">
<title>CompetenceModificationComponent&#45;&gt;AppModule</title>
<path fill="none" stroke="#000000" d="M2488,-122.0336C2488,-139.0597 2488,-162 2488,-162 2488,-162 3925.2294,-162 3925.2294,-162"/>
<polygon fill="#000000" stroke="#000000" points="3925.2295,-165.5001 3935.2294,-162 3925.2294,-158.5001 3925.2295,-165.5001"/>
</g>
<!-- ModalAjoutPosteComponent -->
<g id="node29" class="node">
<title>ModalAjoutPosteComponent</title>
<polygon fill="#ffffb3" stroke="#000000" points="2358.1024,-122 2177.8976,-122 2177.8976,-86 2358.1024,-86 2358.1024,-122"/>
<text text-anchor="middle" x="2268" y="-99.8" font-family="Times,serif" font-size="14.00" fill="#000000">ModalAjoutPosteComponent</text>
</g>
<!-- ModalAjoutPosteComponent&#45;&gt;AppModule -->
<g id="edge29" class="edge">
<title>ModalAjoutPosteComponent&#45;&gt;AppModule</title>
<path fill="none" stroke="#000000" d="M2268,-122.0225C2268,-139.3734 2268,-163 2268,-163 2268,-163 3925.1792,-163 3925.1792,-163"/>
<polygon fill="#000000" stroke="#000000" points="3925.1792,-166.5001 3935.1792,-163 3925.1792,-159.5001 3925.1792,-166.5001"/>
</g>
<!-- FormAjoutPosteComponent -->
<g id="node30" class="node">
<title>FormAjoutPosteComponent</title>
<polygon fill="#ffffb3" stroke="#000000" points="2159.8864,-122 1986.1136,-122 1986.1136,-86 2159.8864,-86 2159.8864,-122"/>
<text text-anchor="middle" x="2073" y="-99.8" font-family="Times,serif" font-size="14.00" fill="#000000">FormAjoutPosteComponent</text>
</g>
<!-- FormAjoutPosteComponent&#45;&gt;AppModule -->
<g id="edge30" class="edge">
<title>FormAjoutPosteComponent&#45;&gt;AppModule</title>
<path fill="none" stroke="#000000" d="M2073,-122.302C2073,-140.2699 2073,-165 2073,-165 2073,-165 3925.0132,-165 3925.0132,-165"/>
<polygon fill="#000000" stroke="#000000" points="3925.0133,-168.5001 3935.0132,-165 3925.0132,-161.5001 3925.0133,-168.5001"/>
</g>
<!-- CharAdapterComponent -->
<g id="node31" class="node">
<title>CharAdapterComponent</title>
<polygon fill="#ffffb3" stroke="#000000" points="1967.6316,-122 1814.3684,-122 1814.3684,-86 1967.6316,-86 1967.6316,-122"/>
<text text-anchor="middle" x="1891" y="-99.8" font-family="Times,serif" font-size="14.00" fill="#000000">CharAdapterComponent</text>
</g>
<!-- CharAdapterComponent&#45;&gt;AppModule -->
<g id="edge31" class="edge">
<title>CharAdapterComponent&#45;&gt;AppModule</title>
<path fill="none" stroke="#000000" d="M1891,-122.2222C1891,-140.8285 1891,-167 1891,-167 1891,-167 3925.3314,-167 3925.3314,-167"/>
<polygon fill="#000000" stroke="#000000" points="3925.3314,-170.5001 3935.3314,-167 3925.3313,-163.5001 3925.3314,-170.5001"/>
</g>
<!-- AppComponent  -->
<g id="node34" class="node">
<title>AppComponent </title>
<polygon fill="#80b1d3" stroke="#000000" points="4031.439,-252 3922.561,-252 3922.561,-216 4031.439,-216 4031.439,-252"/>
<text text-anchor="middle" x="3977" y="-229.8" font-family="Times,serif" font-size="14.00" fill="#000000">AppComponent </text>
</g>
<!-- AppModule&#45;&gt;AppComponent  -->
<g id="edge33" class="edge">
<title>AppModule&#45;&gt;AppComponent </title>
<path fill="none" stroke="#000000" stroke-dasharray="1,5" d="M3977,-187.1061C3977,-187.1061 3977,-205.991 3977,-205.991"/>
<polygon fill="#000000" stroke="#000000" points="3973.5001,-205.9909 3977,-215.991 3980.5001,-205.991 3973.5001,-205.9909"/>
</g>
<!-- AppRoutingModule -->
<g id="node33" class="node">
<title>AppRoutingModule</title>
<polygon fill="#8dd3c7" stroke="#000000" points="1790.2744,-122 1787.2744,-126 1766.2744,-126 1763.2744,-122 1661.7256,-122 1661.7256,-86 1790.2744,-86 1790.2744,-122"/>
<text text-anchor="middle" x="1726" y="-99.8" font-family="Times,serif" font-size="14.00" fill="#000000">AppRoutingModule</text>
</g>
<!-- AppRoutingModule&#45;&gt;AppModule -->
<g id="edge32" class="edge">
<title>AppRoutingModule&#45;&gt;AppModule</title>
<path fill="none" stroke="#000000" d="M1726,-122.1061C1726,-141.3391 1726,-169 1726,-169 1726,-169 3925.0311,-169 3925.0311,-169"/>
<polygon fill="#000000" stroke="#000000" points="3925.0312,-172.5001 3935.0311,-169 3925.0311,-165.5001 3925.0312,-172.5001"/>
</g>
<!-- OffreService -->
<g id="node35" class="node">
<title>OffreService</title>
<ellipse fill="#fdb462" stroke="#000000" cx="1577" cy="-104" rx="60.7889" ry="18"/>
<text text-anchor="middle" x="1577" y="-99.8" font-family="Times,serif" font-size="14.00" fill="#000000">OffreService</text>
</g>
<!-- OffreService&#45;&gt;AppModule -->
<g id="edge34" class="edge">
<title>OffreService&#45;&gt;AppModule</title>
<path fill="none" stroke="#000000" d="M1577,-122.0348C1577,-141.5762 1577,-170 1577,-170 1577,-170 3925.0899,-170 3925.0899,-170"/>
<polygon fill="#000000" stroke="#000000" points="3925.09,-173.5001 3935.0899,-170 3925.0899,-166.5001 3925.09,-173.5001"/>
</g>
<!-- CandidatService -->
<g id="node36" class="node">
<title>CandidatService</title>
<ellipse fill="#fdb462" stroke="#000000" cx="1423" cy="-104" rx="74.7168" ry="18"/>
<text text-anchor="middle" x="1423" y="-99.8" font-family="Times,serif" font-size="14.00" fill="#000000">CandidatService</text>
</g>
<!-- CandidatService&#45;&gt;AppModule -->
<g id="edge35" class="edge">
<title>CandidatService&#45;&gt;AppModule</title>
<path fill="none" stroke="#000000" d="M1423,-122.2228C1423,-142.3652 1423,-172 1423,-172 1423,-172 3925.3264,-172 3925.3264,-172"/>
<polygon fill="#000000" stroke="#000000" points="3925.3265,-175.5001 3935.3264,-172 3925.3264,-168.5001 3925.3265,-175.5001"/>
</g>
<!-- RecruteurService -->
<g id="node37" class="node">
<title>RecruteurService</title>
<ellipse fill="#fdb462" stroke="#000000" cx="1252" cy="-104" rx="78.125" ry="18"/>
<text text-anchor="middle" x="1252" y="-99.8" font-family="Times,serif" font-size="14.00" fill="#000000">RecruteurService</text>
</g>
<!-- RecruteurService&#45;&gt;AppModule -->
<g id="edge36" class="edge">
<title>RecruteurService&#45;&gt;AppModule</title>
<path fill="none" stroke="#000000" d="M1252,-122.0267C1252,-142.7672 1252,-174 1252,-174 1252,-174 3925.2872,-174 3925.2872,-174"/>
<polygon fill="#000000" stroke="#000000" points="3925.2872,-177.5001 3935.2872,-174 3925.2872,-170.5001 3925.2872,-177.5001"/>
</g>
<!-- CompetencesService -->
<g id="node38" class="node">
<title>CompetencesService</title>
<ellipse fill="#fdb462" stroke="#000000" cx="1064" cy="-104" rx="92.0316" ry="18"/>
<text text-anchor="middle" x="1064" y="-99.8" font-family="Times,serif" font-size="14.00" fill="#000000">CompetencesService</text>
</g>
<!-- CompetencesService&#45;&gt;AppModule -->
<g id="edge37" class="edge">
<title>CompetencesService&#45;&gt;AppModule</title>
<path fill="none" stroke="#000000" d="M1064,-122.2843C1064,-143.3211 1064,-175 1064,-175 1064,-175 3925.2613,-175 3925.2613,-175"/>
<polygon fill="#000000" stroke="#000000" points="3925.2613,-178.5001 3935.2613,-175 3925.2612,-171.5001 3925.2613,-178.5001"/>
</g>
<!-- ExperienceService -->
<g id="node39" class="node">
<title>ExperienceService</title>
<ellipse fill="#fdb462" stroke="#000000" cx="871" cy="-104" rx="83.3442" ry="18"/>
<text text-anchor="middle" x="871" y="-99.8" font-family="Times,serif" font-size="14.00" fill="#000000">ExperienceService</text>
</g>
<!-- ExperienceService&#45;&gt;AppModule -->
<g id="edge38" class="edge">
<title>ExperienceService&#45;&gt;AppModule</title>
<path fill="none" stroke="#000000" d="M871,-122.0449C871,-143.6623 871,-177 871,-177 871,-177 3925.1511,-177 3925.1511,-177"/>
<polygon fill="#000000" stroke="#000000" points="3925.1511,-180.5001 3935.1511,-177 3925.1511,-173.5001 3925.1511,-180.5001"/>
</g>
<!-- AuthGuard -->
<g id="node40" class="node">
<title>AuthGuard</title>
<ellipse fill="#fdb462" stroke="#000000" cx="715" cy="-104" rx="54.4566" ry="18"/>
<text text-anchor="middle" x="715" y="-99.8" font-family="Times,serif" font-size="14.00" fill="#000000">AuthGuard</text>
</g>
<!-- AuthGuard&#45;&gt;AppModule -->
<g id="edge39" class="edge">
<title>AuthGuard&#45;&gt;AppModule</title>
<path fill="none" stroke="#000000" d="M715,-122.1554C715,-144.3519 715,-179 715,-179 715,-179 3925.1618,-179 3925.1618,-179"/>
<polygon fill="#000000" stroke="#000000" points="3925.1618,-182.5001 3935.1618,-179 3925.1617,-175.5001 3925.1618,-182.5001"/>
</g>
<!-- AlertService -->
<g id="node41" class="node">
<title>AlertService</title>
<ellipse fill="#fdb462" stroke="#000000" cx="583" cy="-104" rx="59.6646" ry="18"/>
<text text-anchor="middle" x="583" y="-99.8" font-family="Times,serif" font-size="14.00" fill="#000000">AlertService</text>
</g>
<!-- AlertService&#45;&gt;AppModule -->
<g id="edge40" class="edge">
<title>AlertService&#45;&gt;AppModule</title>
<path fill="none" stroke="#000000" d="M583,-122.2479C583,-145.0179 583,-181 583,-181 583,-181 3925.3118,-181 3925.3118,-181"/>
<polygon fill="#000000" stroke="#000000" points="3925.3118,-184.5001 3935.3118,-181 3925.3117,-177.5001 3925.3118,-184.5001"/>
</g>
<!-- AuthenticationService -->
<g id="node42" class="node">
<title>AuthenticationService</title>
<ellipse fill="#fdb462" stroke="#000000" cx="408" cy="-104" rx="97.2683" ry="18"/>
<text text-anchor="middle" x="408" y="-99.8" font-family="Times,serif" font-size="14.00" fill="#000000">AuthenticationService</text>
</g>
<!-- AuthenticationService&#45;&gt;AppModule -->
<g id="edge41" class="edge">
<title>AuthenticationService&#45;&gt;AppModule</title>
<path fill="none" stroke="#000000" d="M408,-122.0908C408,-145.1328 408,-182 408,-182 408,-182 3925.0604,-182 3925.0604,-182"/>
<polygon fill="#000000" stroke="#000000" points="3925.0604,-185.5001 3935.0604,-182 3925.0604,-178.5001 3925.0604,-185.5001"/>
</g>
<!-- UserService -->
<g id="node43" class="node">
<title>UserService</title>
<ellipse fill="#fdb462" stroke="#000000" cx="234" cy="-104" rx="58.4415" ry="18"/>
<text text-anchor="middle" x="234" y="-99.8" font-family="Times,serif" font-size="14.00" fill="#000000">UserService</text>
</g>
<!-- UserService&#45;&gt;AppModule -->
<g id="edge42" class="edge">
<title>UserService&#45;&gt;AppModule</title>
<path fill="none" stroke="#000000" d="M234,-122.1532C234,-145.7566 234,-184 234,-184 234,-184 3925.285,-184 3925.285,-184"/>
<polygon fill="#000000" stroke="#000000" points="3925.2851,-187.5001 3935.285,-184 3925.285,-180.5001 3925.2851,-187.5001"/>
</g>
<!-- JwtInterceptor -->
<g id="node44" class="node">
<title>JwtInterceptor</title>
<ellipse fill="#fdb462" stroke="#000000" cx="91" cy="-104" rx="66.6094" ry="18"/>
<text text-anchor="middle" x="91" y="-99.8" font-family="Times,serif" font-size="14.00" fill="#000000">JwtInterceptor</text>
</g>
<!-- JwtInterceptor&#45;&gt;AppModule -->
<g id="edge43" class="edge">
<title>JwtInterceptor&#45;&gt;AppModule</title>
<path fill="none" stroke="#000000" d="M91,-122.1985C91,-146.3563 91,-186 91,-186 91,-186 3925.3377,-186 3925.3377,-186"/>
<polygon fill="#000000" stroke="#000000" points="3925.3377,-189.5001 3935.3377,-186 3925.3377,-182.5001 3925.3377,-189.5001"/>
</g>
</g>
</svg>
